/* XPM */
static char *acb[]={
"32 32 280 2",
"Qt c None",
"#9 c #7c87a3",
".G c #5e6b8f",
".5 c #606c90",
"b9 c #616d91",
"co c #626d91",
"cm c #636f92",
"bq c #5c698d",
"a8 c #57648a",
"bU c #59678b",
".4 c #576589",
"b1 c #58658a",
".b c #39d039",
"bM c #58658a",
".i c #3bc73e",
"#U c #556388",
"ck c #556288",
".c c #546288",
"bN c #556388",
"bR c #556288",
"bD c #566489",
"cn c #566389",
"#H c #536187",
".o c #536187",
"b6 c #546288",
"bL c #546287",
".C c #526086",
"#q c #536187",
"bY c #526087",
"cp c #526086",
"cd c #536086",
".l c #525f86",
"ct c #515f86",
"b5 c #526086",
"cs c #515f86",
".r c #526086",
".L c #525f86",
"b3 c #526086",
".n c #515f86",
".R c #526086",
".N c #515f86",
".6 c #526087",
"cl c #525f85",
".z c #515f85",
".I c #515f85",
"aV c #515f85",
"bC c #515f86",
"ce c #526085",
".O c #515f85",
"cj c #515f85",
"b0 c #515f86",
".# c #505e85",
".t c #505e85",
".e c #505e85",
"bO c #515f85",
".3 c #505e85",
"aj c #515f85",
"bT c #505e85",
"bK c #515f85",
".m c #505e85",
"b4 c #515e85",
".Q c #515f85",
".F c #505e85",
"cu c #505e85",
"bE c #505e85",
"cv c #505e85",
".x c #505e85",
"#8 c #505e85",
".B c #505e85",
"cc c #505e85",
"bI c #505e85",
"aK c #505e85",
"#p c #505e85",
".j c #505e85",
".s c #505e85",
"b2 c #505e85",
".D c #505e85",
".7 c #505e85",
".u c #505e85",
"cr c #505e85",
"ch c #505e85",
"c# c #505e85",
"cf c #505e85",
"ca c #505e85",
"bX c #505e85",
"bS c #505e85",
".w c #505e85",
"b7 c #505e85",
"cg c #505e85",
"b8 c #505e85",
"bZ c #505e85",
"#T c #505e85",
".S c #505e85",
"#r c #505e85",
".8 c #505e85",
"#V c #505e85",
"bB c #4f5d85",
".H c #505e85",
"br c #505e85",
"bP c #505e85",
".y c #505e85",
"bV c #505e85",
"bQ c #505e85",
"#I c #505e85",
".K c #505e85",
"bJ c #505e85",
"bW c #505e85",
".d c #505e85",
"bF c #505d85",
"cq c #505e85",
".J c #505e85",
"#G c #515f85",
".P c #505e85",
".M c #505e85",
".k c #505e85",
".9 c #505e85",
".A c #505e85",
".2 c #4f5d84",
".E c #505e85",
"ci c #505e85",
"cb c #505e85",
".h c #505d85",
".f c #505e85",
".p c #505e85",
"ax c #505e85",
"c. c #505e85",
".g c #505e85",
".v c #505e85",
"aN c #4d5b83",
"a5 c #4e5c83",
"#5 c #4e5c84",
"aH c #4e5d84",
"bb c #4f5c84",
".V c #4f5d84",
".0 c #4f5d85",
"bG c #4f5e84",
"#L c #4f5e85",
"bH c #505d85",
".U c #505e84",
".q c #505e85",
"#v c #515e85",
"#b c #515f85",
".W c #515f86",
".1 c #525f86",
"#a c #526086",
"#j c #536086",
".T c #536186",
"a0 c #536187",
"bg c #546187",
"#z c #556287",
"#. c #556388",
"#0 c #566387",
".Z c #566388",
"bs c #576488",
".X c #586589",
"bf c #58658a",
"ak c #58668a",
"ai c #596688",
".Y c #59668a",
"#i c #5a6689",
"#o c #5a688a",
"aM c #5b678a",
"a1 c #5c678a",
"bj c #5c688a",
"#B c #5d698a",
"aD c #5e6a8b",
"#W c #616c8e",
"bm c #616d8f",
"#y c #626d8d",
"aS c #626e8f",
"bx c #636e8e",
"aU c #636f8e",
"#O c #65708e",
"#u c #65708f",
"bh c #657091",
"an c #657191",
"bc c #67718f",
"aW c #677393",
"#4 c #68728f",
"aR c #697390",
"a# c #6a7491",
"#Q c #6a7591",
"am c #6a7593",
"bu c #6b7591",
"a4 c #6b7592",
"#M c #6b7695",
"#Y c #6e7793",
"af c #6e7997",
"bt c #6f7992",
"aI c #6f7993",
"#D c #717a94",
"#s c #717b98",
"ab c #727b94",
"aw c #727c96",
"#c c #737e9a",
"aY c #747d95",
"bA c #747d96",
"b. c #757e95",
"a6 c #757f9a",
"bv c #767f97",
"bp c #777f97",
"by c #778097",
"bz c #778098",
"ay c #77809b",
"bn c #77819b",
"ba c #788097",
"#R c #798199",
"be c #79829a",
"bl c #7c859a",
"at c #7f869c",
"aP c #81879b",
"#A c #81889c",
"a. c #848ca2",
"aO c #858c9d",
"#f c #858ca0",
"az c #868da0",
"aA c #878da1",
"as c #888e9f",
"bw c #888ea2",
"#w c #8891a6",
"#K c #898f9f",
"aB c #898fa1",
"#X c #898fa2",
"#n c #8990a3",
"ar c #8a8f9f",
"au c #8a90a1",
"#e c #8c92a4",
"## c #8d94a6",
"ag c #8d94a7",
"ad c #8e93a1",
"#7 c #8f94a2",
"ao c #8f95a6",
"#F c #9095a3",
"aF c #9195a2",
"#6 c #9197a8",
"#l c #9299a9",
"#h c #9398a8",
"a9 c #9399a9",
"ah c #9499a7",
"#1 c #949aaa",
"aX c #959aa8",
"#g c #959ba9",
"#d c #959bab",
"#m c #979cab",
"aL c #989eac",
"ap c #9a9ea7",
"bi c #9aa0ae",
"#E c #9b9fa8",
"#2 c #9ea0a8",
"#J c #9ea1a8",
"al c #9ea3af",
"aE c #a0a2ab",
"#S c #a0a3aa",
"av c #a0a4ae",
"aa c #a1a4aa",
"#k c #a1a6b3",
"aQ c #a2a4aa",
"bd c #a2a4ab",
"#x c #a4a7b0",
"#Z c #a8a9ad",
"aJ c #a9abae",
"ac c #a9acb3",
"a2 c #aaabae",
"aq c #aaacb2",
"#3 c #acaeb2",
"ae c #acaeb3",
"aG c #acafb3",
"aZ c #adaeb0",
"a7 c #adaeb2",
"#P c #adafb3",
"aC c #afafb0",
"a3 c #afb0b4",
"#C c #afb1b4",
"bo c #afb2b7",
"b# c #b0b0b1",
"aT c #b0b1b3",
"bk c #b2b3b5",
"#t c #b3b4b6",
"#N c #b7b8ba",
".a c #dcdcdc",
"QtQtQtQtQtQtQtQtQtQtQtQtQtQtQt.#.#Qt.a.bQtQt.c.dQtQtQtQtQtQtQtQt",
"QtQtQtQtQtQtQtQtQtQtQtQtQt.e.f.g.g.h.a.iQtQt.j.k.lQtQtQtQtQtQtQt",
"QtQtQtQtQtQtQtQtQtQt.m.n.o.p.q.q.q.q.rQtQtQt.s.q.tQtQtQtQtQtQtQt",
"QtQtQtQtQtQtQtQtQt.u.v.w.x.q.q.q.q.y.zQtQtQt.s.q.A.BQtQtQtQtQtQt",
"QtQtQtQtQtQtQt.C.D.g.q.q.q.q.q.q.q.q.E.F.GQt.s.q.q.HQtQtQtQtQtQt",
"QtQtQtQtQtQt.I.J.q.q.q.q.q.q.q.q.q.q.q.q.K.L.M.q.q.f.NQtQtQtQtQt",
"QtQtQtQtQtQt.O.q.q.q.q.q.q.q.q.q.q.q.q.q.q.P.q.q.q.q.QQtQtQtQtQt",
"QtQtQtQtQt.R.S.T.U.q.q.q.q.q.V.W.X.Y.Z.0.V.q.W.W.1.W.2.3.4QtQtQt",
"Qt.5.6.7.8.9#.###a.q.q.q.q#b#c#d#e#f#g#h#i#j#k#l###m#n#o#pQtQtQt",
"#q#r.q.q.q.V#s#t#u.q.q.q#v#w#x#y.U.V#z#A#B#a#C#D#j#B#E#F#G#HQtQt",
"#I.q.q.q.q.0###J#K#L.q.q#M#N#O.V.q.q.q.U.q.1#P#Q.0.V#R#S.T#T#UQt",
"#V.q.q.q.q#W#X#Y#Z#0.q.V#1#2#v.q.q.q.q.q.q#b#3#4#5.0#6#7.q.q#8#9",
".q.q.q.q.0a.a##aaaab#L.qacad#5.q.q.q.q.q.q.Wae#Rafagahai#L.q.qaj",
"#V.q.q.qakalamanaoap.V#baqar#5.q.q.q.q.q.q.Waeasatauavaw.q.q.q.q",
"ax.q.q.VayahazaAaBaCaD.UaEaF.V.q.q.q.q.q.q.WaG#4aH#5aIaJ#i.q.q.q",
"aK.q.q#aaLaM#5#5aNapaO#5aPaQ#a.q.q.q.q.q.q#b#PaR.0.qaSaTaU.q.q.q",
"aV.q.VaWaX.V.q.q.VaYaZa0a1a2aI#5.q.q.q.V#b#aa3a4.0a5a6a7#i.q.q.q",
"a8.q.qa9b..V.q.q.q#0b#babbbcbdbebfbgbhbibj.Tbkblbmbnbobp.U.q.q.q",
"bqbr#baIbs.q.q.q.q.Vbtbu.V.0bsbvazbwatbx.q#bb.bybzbAbj.U.q.q.q.q",
"Qt.3.q.0.q.q.q.q.q.q.0bBbCbDbEbFbG.UbH.V.q.q.0.0.0.V.U.q.q.q.q.D",
"QtbI.q.q.q.q.q.qbJbKbLbMQtQtQtbNbO.q.qbP.q.q.q.q.q.q.q.q.q.qbQbR",
"Qt.7.q.q.q#VbSbSbTQtQtQtQtQtQtQtbUbVbWbX.q.q.q.q.q.q.q.q.q.q.7Qt",
"QtbYbQbZb0b1QtQtQtQtQtQtQtQtQtQtQtb2b3b4.E.q.q.q.q.q.q.q.q.qb5Qt",
"QtQtb6QtQtQtQtQtQtQtQtQtQtQtQtQtQtQtQtQtb7.v.q.q.q.q.q.q.qb8b9Qt",
"QtQtQtQtQtQtQtQtQtQtQtQtQtQtQtQtQtQtQtQtQtc..q.q.q.q.q.q.qc#QtQt",
"QtQtQtQtQtQtQtQtQtQtQtQtQtQtQtQtQtQtQtQtQtca.q.qcb.k.q.9.HccQtQt",
"QtQtQtQtQtQtQtQtQtQtQtQtQtQtQtQtQtQtQtQtQtcdcecfcgchcicjQtQtQtQt",
"QtQtQtQtQtQtQtQtQtQtQtQtQtQtQtQtQtQtQtQtQtQtQtQtQtckclQtQtQtQtQt",
"QtQtQtQtQtQtQtQtQtQtQtQtQtQtQtQtQtQtQtQtQtQtQtQtcmcnQtcncoQtQtQt",
"QtQtQtQtQtQtQtQtQtQtQtQtQtQtQtQtQtQtQtQtQtQtQtQtcpcqcr.PcsQtQtQt",
"QtQtQtQtQtQtQtQtQtQtQtQtQtQtQtQtQtQtQtQtQtQtQtQtQtb7.qc.ctQtQtQt",
"QtQtQtQtQtQtQtQtQtQtQtQtQtQtQtQtQtQtQtQtQtQtQtQtQtcu.qcvQtQtQtQt"};
