/* XPM */
static char *acb50[]={
"50 50 610 2",
"az c None",
"gV c None",
"gK c None",
"gS c None",
"hc c None",
"hb c None",
"hr c None",
"gR c None",
"hC c None",
".E c None",
"gM c None",
"## c None",
"#r c None",
"Qt c None",
"gQ c #7f89a6",
"#L c #8891ac",
"hk c #8892ac",
"ca c #8d96af",
"gy c #8d97af",
".L c #919cb2",
"#e c #929ab3",
"hl c #959db5",
".b c #969eb5",
"#I c #a0a7bc",
"gF c #a6adc1",
"hD c #a7aec1",
".# c #a8afc2",
".Q c #abb1c4",
"f9 c #acb2c5",
"gW c #b9bece",
"gN c #bfc4d2",
"hu c #717c9b",
"bw c #75819f",
".P c #76819f",
"hx c #7983a1",
"go c #7d87a4",
".n c #7eb88f",
"hp c #8690ab",
"a5 c #8b94ae",
"a. c #939cb4",
"g1 c #6c7899",
"en c #6d7999",
"#C c #727d9c",
"#y c #737e9d",
"ay c #7d87a4",
"#U c #626e91",
"gB c #657294",
".f c #677495",
".A c #698b8d",
"f4 c #6b7798",
".a c #727d9c",
".r c #616e91",
"hm c #697596",
"gE c #6a7597",
"hq c #6c7798",
"gd c #5f6c8f",
".e c #606c8f",
"hF c #616d90",
"hy c #616e91",
"bv c #636f92",
"fg c #647093",
"gL c #677495",
"gg c #697596",
"f8 c #6a7697",
"c2 c #5f6b8f",
"gZ c #5b688d",
".2 c #5e6b8e",
"#Y c #5e6b8f",
"a# c #606d90",
"#s c #616e91",
".c c #59668b",
"fT c #5d6a8d",
"ge c #5e6a8e",
"#f c #5b688d",
"gp c #5d6a8d",
"ho c #5d6a8e",
"fX c #58668a",
"#9 c #59678b",
"hh c #5a678b",
".X c #58658a",
"#m c #5b688c",
"#. c #5b698c",
"#q c #57648a",
"gj c #59658b",
"#M c #59668b",
"ha c #5a678c",
"hd c #5a678b",
"hn c #5a678c",
"#Z c #566389",
"cI c #576489",
".m c #576e85",
"fY c #58648a",
"gJ c #58658a",
"ct c #58668b",
"aa c #5a678b",
"g6 c #556389",
".F c #57658a",
"f7 c #59658a",
".g c #58658a",
"gT c #556388",
".R c #576489",
"#H c #566489",
"eS c #546288",
".q c #546287",
"aA c #566388",
"g. c #566389",
"ea c #536087",
".h c #556388",
"gY c #526087",
"hv c #536186",
"#J c #536188",
".o c #546288",
"f3 c #526086",
"ab c #546287",
"gX c #546288",
"bS c #536186",
".3 c #536187",
"gC c #546287",
"hj c #546288",
"#B c #526086",
".1 c #546187",
".6 c #546288",
"f6 c #536187",
".l c #545f88",
"aB c #546187",
"hg c #536087",
"dn c #536187",
".d c #536187",
"gx c #536087",
"he c #536187",
"a4 c #526087",
"hB c #536087",
"gt c #526086",
"gu c #526087",
"dm c #536087",
".B c #526086",
"gG c #536086",
".K c #526086",
"gs c #536086",
"gz c #526086",
"gn c #536086",
"eB c #515f86",
"#V c #515f86",
".D c #526086",
"h# c #525f86",
".Y c #526086",
"#a c #526086",
"gf c #525f86",
"#D c #526086",
".k c #526086",
"fS c #526086",
"ax c #516086",
"gA c #525f86",
"gU c #526086",
".M c #525f86",
"aC c #526086",
"gO c #515f85",
"bx c #515f86",
".S c #515f85",
"gl c #526086",
"fE c #515f85",
"#E c #515f86",
"#t c #515f86",
"#x c #515f86",
"gh c #515f86",
"gI c #526085",
"#Q c #525f85",
".z c #506184",
"dJ c #515f86",
"hE c #515f85",
"#d c #515f86",
"gm c #515f85",
"g5 c #515f86",
"gH c #525f85",
"cb c #515f86",
".j c #515f85",
".s c #515f86",
"fZ c #515f85",
"fD c #515f86",
"gk c #515e85",
"#n c #515f86",
"c3 c #515f86",
"#8 c #515e85",
"c# c #515f85",
".i c #515e85",
"dI c #515f85",
".O c #515f85",
"hi c #515f85",
"g7 c #515e85",
"gc c #515f85",
"g9 c #515f85",
"c1 c #515f85",
"#l c #515f85",
"hf c #515e85",
"eo c #515f85",
"hw c #515f85",
"f5 c #505e85",
"ht c #515f85",
"hs c #505e85",
"dW c #515f85",
"cH c #505e85",
".T c #505e85",
".p c #505e85",
"f0 c #505e85",
"gP c #505e85",
"#G c #505e85",
".9 c #505e85",
"bu c #505d84",
"#R c #505e85",
"gq c #505e85",
"#z c #505e85",
"gi c #505e85",
"#T c #505e85",
"aD c #505e85",
"fW c #4f5d85",
".4 c #505e85",
".7 c #505e85",
"#p c #505e85",
".W c #505e85",
"g0 c #505e85",
"e# c #505e85",
"hz c #505e85",
"#P c #505e85",
"fI c #505e85",
"cJ c #505e85",
"g8 c #505e85",
".t c #505e85",
"a6 c #505e85",
"fV c #4f5d85",
"f1 c #4e5d84",
"cs c #505e85",
".u c #505e85",
"aw c #4f5d85",
"#w c #505e85",
"g# c #505e85",
"g4 c #505e85",
"fJ c #4f5d84",
".5 c #505e85",
".y c #505e85",
"fH c #505e85",
"#h c #505e85",
".G c #505e85",
"#N c #505e85",
".0 c #505e85",
"gD c #505e85",
"a7 c #505e85",
"by c #505e85",
"#A c #505e85",
"#X c #505e85",
"eT c #505e85",
"bT c #505e85",
"hA c #505e85",
"#F c #505e85",
"gv c #505e85",
".J c #505e85",
"bR c #4d5b83",
".C c #505e85",
"#c c #505e85",
"gr c #505e85",
"dl c #505e85",
".x c #505e85",
"#i c #505e85",
"ga c #505e85",
"eC c #505e85",
"#K c #505e85",
"aE c #505e85",
"#k c #505e85",
"h. c #505e85",
"eA c #505e85",
"#u c #505e85",
"gw c #505e85",
"#v c #505e85",
"a3 c #525f85",
"#g c #505e85",
"fG c #515f85",
"#j c #505e85",
"fK c #4e5c84",
"g2 c #505e85",
".v c #505e85",
".w c #505e85",
".N c #505e85",
"#O c #505e85",
"fU c #505e85",
"av c #515f86",
"#7 c #4f5d84",
".Z c #505e85",
"f2 c #4f5c84",
"ac c #505e85",
"gb c #505e85",
"fC c #505e85",
"c. c #4d5c84",
"cG c #505e85",
"#W c #505e85",
"fL c #525f86",
".8 c #505e85",
"g3 c #505e85",
"#0 c #4d5b83",
"#S c #505e85",
"fF c #505f85",
"#o c #505e85",
".V c #505e85",
"#b c #505e85",
".U c #505e85",
"fM c #576487",
".H c #505e85",
"au c #5e6b8d",
"co c #4b5982",
"#4 c #4b5a82",
"b6 c #4c5a83",
"#3 c #4c5b82",
"cC c #4d5b83",
"bE c #4d5b84",
"#2 c #4d5c83",
"dV c #4d5c84",
"et c #4e5b83",
"dy c #4e5b84",
"aI c #4e5c83",
"#6 c #4e5c84",
"af c #4e5d84",
"#5 c #4f5c84",
"#1 c #4f5d84",
"ba c #4f5d85",
"bL c #4f5e84",
"cP c #4f5e85",
"bK c #505d84",
"ao c #505d85",
"b2 c #505e84",
".I c #505e85",
"fQ c #505f85",
"ef c #515e85",
"fR c #515f85",
"bf c #526085",
"ag c #526087",
"ck c #535f85",
"dB c #536085",
"b# c #536086",
"bg c #536186",
"d0 c #546187",
"ep c #546188",
"eX c #546286",
"cM c #546287",
"aJ c #546288",
"fB c #556286",
"ae c #556287",
"eU c #556288",
"fP c #556386",
"e4 c #556388",
"e5 c #556389",
"e0 c #566287",
"dC c #566386",
"e. c #566388",
"bz c #566389",
"c7 c #566488",
"c4 c #566489",
"cu c #576389",
"bn c #576487",
"bo c #576488",
"an c #576489",
"em c #586589",
"d1 c #596488",
"ff c #596589",
"d. c #596689",
"fO c #5a6789",
"fN c #5b6889",
"dk c #5b688b",
"ap c #5b688c",
"dS c #5c688b",
"bI c #5d698b",
"aF c #5d6a8d",
"dD c #5e6a8a",
"bJ c #5e6a8b",
"d7 c #5e6b8c",
"bp c #5f6b8b",
"fm c #5f6b8c",
"cQ c #5f6b8d",
"eK c #5f6c8c",
"es c #606c8c",
"e6 c #606c8e",
"cW c #606c8f",
"fl c #616d8d",
"ar c #616d8f",
"dv c #616e8e",
"ce c #626c8d",
"c0 c #626d8d",
"aq c #626e90",
"be c #636e8d",
"d# c #636e8f",
"cD c #636f90",
"at c #636f91",
"bD c #646f8e",
"eL c #646f91",
"as c #647091",
"b1 c #65708e",
"bt c #65708f",
"bY c #657191",
"dX c #677292",
"fb c #677293",
"dZ c #687290",
"ah c #687393",
"fa c #687492",
"eM c #697392",
"cw c #697491",
"dc c #6a7490",
"dH c #6a7491",
"bh c #6a7591",
"bU c #6a7594",
"ad c #6a7695",
"fA c #6b7591",
"am c #6b7695",
"cX c #6b7796",
"ev c #6c7591",
"aH c #6d7792",
"ex c #6d7796",
"a2 c #6d7895",
"eI c #6e7893",
"cT c #6f7993",
"dU c #717a94",
"cB c #727b94",
"fc c #727d99",
"c6 c #737c94",
"cn c #737c95",
"d6 c #747c95",
"e3 c #747f98",
"fi c #757e95",
"b5 c #757e96",
"do c #757f9b",
"eD c #75809c",
"dA c #767e95",
"cr c #767f96",
"eY c #767f97",
"aK c #77819d",
"bN c #788096",
"eO c #788097",
"ai c #78829c",
"aT c #798098",
"eg c #798197",
"cz c #798198",
"e8 c #798199",
"ed c #7a8298",
"er c #7b8299",
"fu c #7b8399",
"b7 c #7b839c",
"bq c #7b8499",
"al c #7b849e",
"dE c #7c839a",
"eH c #7c849a",
"cK c #7c859f",
"bX c #7d8399",
"cV c #7d839a",
"d5 c #7d849a",
"bQ c #7d859a",
"a8 c #7d86a0",
"eR c #7e859a",
"aj c #7f879f",
"ak c #7f88a0",
"dq c #8089a1",
"dr c #818aa1",
"bm c #82899b",
"ds c #828aa2",
"cA c #838ba0",
"cU c #838ca1",
"cY c #838ca4",
"b9 c #848a9c",
"bj c #848b9d",
"cl c #848ba0",
"dj c #858da3",
"ee c #868c9d",
"fn c #868d9e",
"cd c #868d9f",
"ej c #868da2",
"b3 c #878ea2",
"bM c #878fa2",
"ew c #878fa3",
"aP c #888fa0",
"fe c #898f9f",
"aO c #898fa0",
"eb c #8990a6",
"bF c #8992a8",
"eN c #8a91a4",
"bk c #8a92a4",
"cO c #8b91a0",
"f# c #8b91a1",
"cj c #8c91a0",
"b. c #8c92a0",
"cc c #8c93a6",
"cp c #8c93a7",
"ch c #8c93a8",
"e9 c #8d93a5",
"bb c #8e97ab",
"bO c #8f94a2",
"cZ c #8f94a3",
"fz c #8f95a3",
"fj c #9196a2",
"ei c #9196a3",
"d4 c #9196a4",
"dM c #9196a5",
"eF c #9295a2",
"fx c #9297a6",
"bH c #9397a4",
"fw c #9398a5",
"dO c #9398a7",
"bd c #9499a7",
"dN c #9499a8",
"aU c #949aac",
"fy c #959aa7",
"dR c #969aa5",
"dP c #969aa7",
"fh c #969ca7",
"dK c #969cad",
"cx c #979ba6",
"aQ c #989ca9",
"aN c #989daa",
"fk c #999da6",
"ft c #999daa",
"eW c #999ea7",
"c8 c #9a9da7",
"d2 c #9a9ea7",
"bi c #9a9ea8",
"eJ c #9b9ea8",
"fv c #9b9fa7",
"a1 c #9ba0ad",
"bA c #9ba0ae",
"cg c #9c9fa8",
"fo c #9ca0aa",
"cL c #9ca0ab",
"bV c #9ca0ac",
"fd c #9ca2b0",
"cF c #9da0a9",
"dL c #9da0aa",
"ec c #9da1ac",
"aX c #9da1ae",
"e2 c #9ea2ab",
"fq c #9fa2af",
"fs c #9fa3af",
"fr c #9fa3b0",
"eu c #a0a2a9",
"fp c #a0a4ae",
"cy c #a0a5b1",
"eZ c #a1a3aa",
"e1 c #a1a4aa",
"aY c #a1a5b1",
"aL c #a1a6b4",
"ez c #a2a5aa",
"dt c #a2a6b1",
"eV c #a2a7b3",
"eP c #a2a7b5",
"dT c #a3a6ae",
"cv c #a4a8b2",
"df c #a5a8b0",
"e7 c #a5aab4",
"bC c #a6a8ac",
"bs c #a6a9ae",
"dY c #a6a9b2",
"c9 c #a7a9ad",
"de c #a7a9ae",
"c5 c #a7abb5",
"b0 c #a9aaae",
"di c #a9abb2",
"aS c #a9abb4",
"d8 c #aaacb0",
"dw c #aaacb2",
"aZ c #aaaeb6",
"dG c #abadb2",
"cR c #abaeb4",
"d3 c #acacae",
"d9 c #acadaf",
"ek c #acaeb3",
"aW c #acaeb5",
"dg c #acafb6",
"aM c #acafb7",
"da c #adaeb3",
"eq c #adb0b8",
"dQ c #afaeb0",
"cf c #afb0b1",
"aG c #afb2ba",
"cN c #b0b0b1",
"el c #b0b1b1",
"a0 c #b0b3b9",
"dx c #b1b1b2",
"aR c #b1b3b8",
"eh c #b2b1b2",
"db c #b2b2b2",
"bW c #b3b3b2",
"cS c #b3b3b3",
"bB c #b3b3b4",
"br c #b3b4b4",
"eE c #b3b4b7",
"dp c #b3b5b8",
"cm c #b4b3b4",
"du c #b4b4b3",
"b4 c #b4b4b4",
"dz c #b4b4b5",
"dF c #b4b4b7",
"cE c #b4b6bc",
"eG c #b5b4b3",
"bP c #b5b5b4",
"bl c #b5b5b5",
"dh c #b5b6b9",
"dd c #b6b5b5",
"f. c #b7b6b5",
"b8 c #b7b7b6",
"cq c #b7b7b7",
"eQ c #b8b8b8",
"ey c #b8b9ba",
"bc c #b8babe",
"bZ c #b9bcc0",
"ci c #bababa",
"a9 c #bbbbbc",
"bG c #bfc0c0",
"aV c #c0c0c2",
"QtQtQtQtQtQtQtQtQtQtQtQtQtQtQtQtQtQtQtQtQtQtQt.#.a.bQtQtQtQtQtQtQtQtQt.c.d.eQtQtQtQtQtQtQtQtQtQtQtQt",
"QtQtQtQtQtQtQtQtQtQtQtQtQtQtQtQtQtQtQtQtQt.f.g.h.i.j.k.l.m.nQtQtQtQtQt.o.p.qQtQtQtQtQtQtQtQtQtQtQtQt",
"QtQtQtQtQtQtQtQtQtQtQtQtQtQtQtQtQtQtQtQt.r.s.t.u.v.w.x.y.z.AQtQtQtQtQt.B.C.D.EQtQtQtQtQtQtQtQtQtQtQt",
"QtQtQtQtQtQtQtQtQtQtQtQtQtQtQtQtQtQtQtQt.F.G.H.H.I.I.I.J.K.LQtQtQtQtQt.M.N.O.PQtQtQtQtQtQtQtQtQtQtQt",
"QtQtQtQtQtQtQtQtQtQtQtQtQtQt.Q.R.O.SQtQt.T.U.I.I.I.I.V.W.XQtQtQtQtQtQt.Y.Z.0.1.2QtQtQtQtQtQtQtQtQtQt",
"QtQtQtQtQtQtQtQtQtQtQtQtQtQt.3.4.N.5.6.k.7.I.I.I.I.I.8.9#.##QtQtQtQtQt#a.Z#b#c#d#eQtQtQtQtQtQtQtQtQt",
"QtQtQtQtQtQtQtQtQtQtQtQtQt#f.W.V.I#g#h#i#j.I.I.I.I.I.H#k#l#mQtQtQtQtQt#n#o.I#b#p#qQtQtQtQtQtQtQtQtQt",
"QtQtQtQtQtQtQtQtQtQtQt#r#s#t#u.I.I.I.H.I.I.I.I.I.I.I.I.I#v#w#x#yQtQtQt#z.I.I.I#A#BQtQtQtQtQtQtQtQtQt",
"QtQtQtQtQtQtQtQtQtQt#C#D#E#F.H.I.I.I.I.I.I.I.I.I.I.I.I.I.I.U#k#G#H#I#J#K.I.I.I.Z.s#LQtQtQtQtQtQtQtQt",
"QtQtQtQtQtQtQtQtQtQt#M#N#O#b.I.I.I.I.I.I.I.I.I.I.I.I.I.I.I.I.I.H#P#Q#R#S.I.I.I.I#T#UQtQtQtQtQtQtQtQt",
"QtQtQtQtQtQtQtQtQtQt#V#i.I.I.I.I.I.I.I.I.I.I.I.I.I.I.I.I.I.I.I.I#b#O#W.I.I.I.I.I#X#YQtQtQtQtQtQtQtQt",
"QtQtQtQtQtQtQtQtQt#Z.4#0#1.I.I.I.I.I.I.I.I.I.I.I#2#3#4#4#4#2#1.I.I.I#5#6#6#6#6#6#7#8#9QtQtQtQtQtQtQt",
"QtQtQtQtQta.a#aaab.7acadae#1.I.I.I.I.I.I.I#1afagahaiajakalamanao.I.IapaqaraqasatauavawaxayQtQtQtQtQt",
"QtQtazaAaBaCaD.GaE#1aFaGaHaI.I.I.I.I.I.I#1aJaKaLaMaNaOaPaQaRaSaT#1.IaUaVaWaXaYaZa0a1a2a3a4QtQtQtQtQt",
"Qta5.Ba6a7#K.I.I.I#1a8a9b.b#ba.I.I.I.I#1aJbbbcbdbebf#1#1bgbhbibj#1.IbkblbmbnbobpbqbrbsbtbubvQtQtQtQt",
"bwbxby.H.I.I.I.I.IbzbAbBbCbDaf.I.I.IbabEbFbGbHbo#6#1aoao#1#1bIbJbKbLbMbBbN#6#1#6afbObPbQbRbSQtQtQtQt",
"#DbT.U.I.I.I.I.I#1bUbVbObWbX.I.I.I.IaIbYbZb0b1#1.I.I.I.I.I.I#1b2.I#1b3b4b5#1.I.Ib6b7b8b9c..Gc#caQtQt",
"cb.Z.I.I.I.I.I.I#6cccdcecfcganb2.I.IbKchcicjck#1.I.I.I.I.I.I.I.I.I#1clcmcn#1.I#1cocpcqcraI.IcsctQtQt",
"#d#K.I.I.I.I.I#1cucvcwbLcxcfbhaI.I#1ancyb4cz#6.I.I.I.I.I.I.I.I.I.IafcAb4cBcCcCcCcDcEcFbI#1.IcGcHcIQt",
"cJ.8.I.I.I.I.I#2cKcLcMaIcncNcOcCcP#1cQcRcScT#6.I.I.I.I.I.I.I.I.I.IafcUb4cVcWcXcYcycZc0bL.I.I.I#gc1c2",
"c3.Z.I.I.I.I#1c4c5c6cocCc7c8c9d.#1#1d#dadbdc#6.I.I.I.I.I.I.I.I.I.IafcUdddedfdgdhdidjdk#1.I.I.I.Hdldm",
"dn#A.I.I.I.I#6dodpcldqdrdsdtducz#6#1dvdwdxdcdy.I.I.I.I.I.I.I.I.I.IafcUdzdAdBdCdDdEdFdGdH#1.I.I.I#odI",
"dJ#g.I.I.I.IcMdKdLdMdNdNdOdPdQdRbo#1dSdTbWdU#6.I.I.I.I.I.I.I.I.I.IafcUdzc6aI#1dVbEcrcSdRcP#1.I.I.HdW",
".Y#i.I.I.I#1dXdYdZb#d0d0b#d1d2d3dc#1cMd4bWd5#1.I.I.I.I.I.I.I.I.I.IafcUdzd6#1.I.I#6d7d8d9e.#1.I.I.Ie#",
"ea.y.I.I.I#3ebecaebababa#1cCeddueeef#1egeheid0#1.I.I.I.I.I.I.I.I.I#1ejdzd6#1.I.IbacQekelem#1.I.I.I.x",
"eneo.Z.I#1epeqer#1.I.I.I.IafbId9b0esetd.eud9ev#6.I.I.I.I.I.I#1.I.I#1ewb4crba.I.I#2exeyezbf#1.I.I.IeA",
"QteBeC.IcCeDeEbe#1.I.I.I.I.I.IeFeGeHcCafeIb0eJeK#2aI#1#1aI#1eLeMb2.IeNb4eOcCaIcCc4ePeQeR#6.I.I.I.I#N",
"QteSeT#1eUeVeWeX#1.I.I.I.I.I#1eYbWeZe0#6.IcBe1e2e3cQe4e5e6ake7e8#1.Ie9f.f#fafbfcfddhfeff#1.I.I.I.I.4",
"Qtfg#P#1bIfhfi#1.I.I.I.I.I.I.IbIfjfkflaf.I.IfmfnfofpfqfrfsftbQemba.IfufvdRfwfxfyfzfAfB#1.I.I.I.IfCfD",
"QtQtfE#S.I.I.I.I.I.I.I.I.I.I.I.I.UfFfGfHfI#PfJfKfLfMfNfOfPbKcC#1.I.IeffQfRfRfQ#1cC#5.I.I.I.I.I.I.wfS",
"QtQtfT.x.Iba.I.I.I.I.I.I.I.IfUbyfVfW.jfXQtQtfYfZf0f1f2#1#1.I.I.I.I.Ibabababababa.I.I.I.I.I.I.I.Ha7f3",
"QtQtf4dl.I.I.I.I.I.I.I.I#obyf5f6f7f8QtQtQtQtQtQtf9g.g#.I.I#Sgagb.I.I.I.I.I.I.I.I.I.I.I.I.I.I.I#jgcgd",
"QtQtge#g.I.I.I.I.I#b#b.H.CgfggQtQtQtQtQtQtQtQtQtQtQtgh.v.I#N#E#F.I.I.I.I.I.I.I.I.I.I.I.I.I.I.IgigjQt",
"QtQtgk.H.I.I.8bycHgl#tgmgngoQtQtQtQtQtQtQtQtQtQtQtQtgpgqgrgsgt#F.I.I.I.I.I.I.I.I.I.I.I.I.I.I#WguQtQt",
"QtQtfEgvgw#kaDgx#eQtQtQtQtQtQtQtQtQtQtQtQtQtQtQtQtQtgygzgAgBgC#p#o.I.I.I.I.I.I.I.I.I.I.I.I.IgDgEQtQt",
"QtQtgFgGgHgIgJQtQtQtQtQtQtQtQtQtQtQtQtQtQtQtQtQtQtQtgKgL.fgMgNgOac.I.I.I.I.I.I.I.I.I.I.I.I.VgPgQQtQt",
"QtQtQtgRgSQtQtQtQtQtQtQtQtQtQtQtQtQtQtQtQtQtQtQtQtQtQtQtQtQtQtgTe##b.I.I.I.I.I.I.I.I.I.I.I#kgUgVQtQt",
"QtQtQtQtQtQtQtQtQtQtQtQtQtQtQtQtQtQtQtQtQtQtQtQtQtQtQtQtQtQtQtgWgX#A.I.I.I.I.I.I.I.I.I.I.I#hgYQtQtQt",
"QtQtQtQtQtQtQtQtQtQtQtQtQtQtQtQtQtQtQtQtQtQtQtQtQtQtQtQtQtQtQtQtgZ#G#b.I.I.I.I.I.I.I.I.I#bg0#ZQtQtQt",
"QtQtQtQtQtQtQtQtQtQtQtQtQtQtQtQtQtQtQtQtQtQtQtQtQtQtQtQtQtQtQtQtg1#ng2.I.I.Ig3#g#o.I#S#cg4g5goQtQtQt",
"QtQtQtQtQtQtQtQtQtQtQtQtQtQtQtQtQtQtQtQtQtQtQtQtQtQtQtQtQtQtQtQtQtg6g7g8.x#bcsg9h.g3g8h#gChahbQtQtQt",
"QtQtQtQtQtQtQtQtQtQtQtQtQtQtQtQtQtQtQtQtQtQtQtQtQtQtQtQtQtQtQtQtQthcf8hdhehfhghhhie#hjhkQtQtQtQtQtQt",
"QtQtQtQtQtQtQtQtQtQtQtQtQtQtQtQtQtQtQtQtQtQtQtQtQtQtQtQtQtQtQtQtQtQtQtQtQtQtQtQthlhmQtQtQtQtQtQtQtQt",
"QtQtQtQtQtQtQtQtQtQtQtQtQtQtQtQtQtQtQtQtQtQtQtQtQtQtQtQtQtQtQtQtQtQtQtQtQtQtQtQtQtQtQtQtQtQtQtQtQtQt",
"QtQtQtQtQtQtQtQtQtQtQtQtQtQtQtQtQtQtQtQtQtQtQtQtQtQtQtQtQtQtQtQtQtQtQtQtQtQtQtQtQtQtQtQtQtQtQtQtQtQt",
"QtQtQtQtQtQtQtQtQtQtQtQtQtQtQtQtQtQtQtQtQtQtQtQtQtQtQtQtQtQtQtQtQtQtQtQtQtQthlhnhohphqf8hrQtQtQtQtQt",
"QtQtQtQtQtQtQtQtQtQtQtQtQtQtQtQtQtQtQtQtQtQtQtQtQtQtQtQtQtQtQtQtQtQtQtQtQtQt.b#Ee#hse#hthuQtQtQtQtQt",
"QtQtQtQtQtQtQtQtQtQtQtQtQtQtQtQtQtQtQtQtQtQtQtQtQtQtQtQtQtQtQtQtQtQtQtQtQtQtQthvgD.HgbhwhxQtQtQtQtQt",
"QtQtQtQtQtQtQtQtQtQtQtQtQtQtQtQtQtQtQtQtQtQtQtQtQtQtQtQtQtQtQtQtQtQtQtQtQtQtQthyhz.UhAhBhCQtQtQtQtQt",
"QtQtQtQtQtQtQtQtQtQtQtQtQtQtQtQtQtQtQtQtQtQtQtQtQtQtQtQtQtQtQtQtQtQtQtQtQtQtQthDhEbyfZhFQtQtQtQtQtQt"};
